{"asset":{"generator":"Khronos glTF Blender I/O v4.0.44","version":"2.0"},"scene":0,"scenes":[{"name":"Scene","nodes":[0]}],"nodes":[{"mesh":0,"name":"Coin"}],"materials":[{"doubleSided":true,"name":"MI_Trim_Metal_Vertex","pbrMetallicRoughness":{"baseColorTexture":{"index":0}}}],"meshes":[{"name":"Cylinder.073","primitives":[{"attributes":{"COLOR_0":0,"POSITION":1,"NORMAL":2,"TEXCOORD_0":3},"indices":4,"material":0}]}],"textures":[{"sampler":0,"source":0}],"images":[{"mimeType":"image/png","name":"T_Trim_Metal_BaseColor","uri":"../shared/T_Trim_Metal_BaseColor.png"}],"accessors":[{"bufferView":0,"componentType":5123,"count":316,"normalized":true,"type":"VEC4"},{"bufferView":1,"componentType":5126,"count":316,"max":[0.03412656486034393,0.03412656858563423,0.007252986077219248],"min":[-0.03412656486034393,-0.03412656858563423,-0.007252984680235386],"type":"VEC3"},{"bufferView":2,"componentType":5126,"count":316,"type":"VEC3"},{"bufferView":3,"componentType":5126,"count":316,"type":"VEC2"},{"bufferView":4,"componentType":5123,"count":912,"type":"SCALAR"}],"bufferViews":[{"buffer":0,"byteLength":2528,"byteOffset":0,"target":34962},{"buffer":0,"byteLength":3792,"byteOffset":2528,"target":34962},{"buffer":0,"byteLength":3792,"byteOffset":6320,"target":34962},{"buffer":0,"byteLength":2528,"byteOffset":10112,"target":34962},{"buffer":0,"byteLength":1824,"byteOffset":12640,"target":34963}],"samplers":[{"magFilter":9729,"minFilter":9987}],"buffers":[{"byteLength":14464,"uri":"Coin.bin"}]}