{"asset":{"version":"2.0","generator":"Town Forge procedural prop builder (CC0)"},"buffers":[{"uri":"VaultDoor.bin","byteLength":30288}],"bufferViews":[{"buffer":0,"byteOffset":0,"byteLength":13728,"target":34962},{"buffer":0,"byteOffset":13728,"byteLength":13728,"target":34962},{"buffer":0,"byteOffset":27456,"byteLength":2832,"target":34963}],"accessors":[{"bufferView":0,"componentType":5126,"count":1144,"type":"VEC3","min":[-0.85,0.0,-0.25],"max":[0.85,1.6,0.25]},{"bufferView":1,"componentType":5126,"count":1144,"type":"VEC3"},{"bufferView":2,"componentType":5123,"count":1416,"type":"SCALAR"}],"materials":[{"pbrMetallicRoughness":{"baseColorFactor":[0.25,0.25,0.28,1.0],"metallicFactor":0.0,"roughnessFactor":0.9},"name":"mat0"},{"pbrMetallicRoughness":{"baseColorFactor":[0.52,0.54,0.58,1.0],"metallicFactor":0.85,"roughnessFactor":0.35},"name":"mat1"},{"pbrMetallicRoughness":{"baseColorFactor":[0.55,0.55,0.58,1.0],"metallicFactor":0.0,"roughnessFactor":0.9},"name":"mat2"}],"meshes":[{"name":"VaultDoor","primitives":[{"attributes":{"POSITION":0,"NORMAL":1},"indices":2,"material":0},{"attributes":{"POSITION":0,"NORMAL":1},"indices":2,"material":1},{"attributes":{"POSITION":0,"NORMAL":1},"indices":2,"material":0},{"attributes":{"POSITION":0,"NORMAL":1},"indices":2,"material":0},{"attributes":{"POSITION":0,"NORMAL":1},"indices":2,"material":0},{"attributes":{"POSITION":0,"NORMAL":1},"indices":2,"material":0},{"attributes":{"POSITION":0,"NORMAL":1},"indices":2,"material":0},{"attributes":{"POSITION":0,"NORMAL":1},"indices":2,"material":0},{"attributes":{"POSITION":0,"NORMAL":1},"indices":2,"material":0},{"attributes":{"POSITION":0,"NORMAL":1},"indices":2,"material":0},{"attributes":{"POSITION":0,"NORMAL":1},"indices":2,"material":0},{"attributes":{"POSITION":0,"NORMAL":1},"indices":2,"material":0},{"attributes":{"POSITION":0,"NORMAL":1},"indices":2,"material":0},{"attributes":{"POSITION":0,"NORMAL":1},"indices":2,"material":0},{"attributes":{"POSITION":0,"NORMAL":1},"indices":2,"material":0},{"attributes":{"POSITION":0,"NORMAL":1},"indices":2,"material":2}]}],"nodes":[{"name":"VaultDoor","mesh":0}],"scenes":[{"name":"scene","nodes":[0]}],"scene":0}