{"asset":{"version":"2.0","generator":"Town Forge procedural prop builder (CC0)"},"buffers":[{"uri":"LumberPile.bin","byteLength":7128}],"bufferViews":[{"buffer":0,"byteOffset":0,"byteLength":3168,"target":34962},{"buffer":0,"byteOffset":3168,"byteLength":3168,"target":34962},{"buffer":0,"byteOffset":6336,"byteLength":792,"target":34963}],"accessors":[{"bufferView":0,"componentType":5126,"count":264,"type":"VEC3","min":[-0.8,0.0,-0.43000000000000005],"max":[0.8,0.42,0.43000000000000005]},{"bufferView":1,"componentType":5126,"count":264,"type":"VEC3"},{"bufferView":2,"componentType":5123,"count":396,"type":"SCALAR"}],"materials":[{"pbrMetallicRoughness":{"baseColorFactor":[0.55,0.37,0.21,1.0],"metallicFactor":0.0,"roughnessFactor":0.9},"name":"mat0"},{"pbrMetallicRoughness":{"baseColorFactor":[0.42,0.28,0.16,1.0],"metallicFactor":0.0,"roughnessFactor":0.9},"name":"mat1"}],"meshes":[{"name":"LumberPile","primitives":[{"attributes":{"POSITION":0,"NORMAL":1},"indices":2,"material":0},{"attributes":{"POSITION":0,"NORMAL":1},"indices":2,"material":0},{"attributes":{"POSITION":0,"NORMAL":1},"indices":2,"material":0},{"attributes":{"POSITION":0,"NORMAL":1},"indices":2,"material":0},{"attributes":{"POSITION":0,"NORMAL":1},"indices":2,"material":0},{"attributes":{"POSITION":0,"NORMAL":1},"indices":2,"material":0},{"attributes":{"POSITION":0,"NORMAL":1},"indices":2,"material":0},{"attributes":{"POSITION":0,"NORMAL":1},"indices":2,"material":0},{"attributes":{"POSITION":0,"NORMAL":1},"indices":2,"material":0},{"attributes":{"POSITION":0,"NORMAL":1},"indices":2,"material":1},{"attributes":{"POSITION":0,"NORMAL":1},"indices":2,"material":1}]}],"nodes":[{"name":"LumberPile","mesh":0}],"scenes":[{"name":"scene","nodes":[0]}],"scene":0}