{"asset":{"version":"2.0","generator":"Town Forge procedural prop builder (CC0)"},"buffers":[{"uri":"Sawhorse.bin","byteLength":3888}],"bufferViews":[{"buffer":0,"byteOffset":0,"byteLength":1728,"target":34962},{"buffer":0,"byteOffset":1728,"byteLength":1728,"target":34962},{"buffer":0,"byteOffset":3456,"byteLength":432,"target":34963}],"accessors":[{"bufferView":0,"componentType":5126,"count":144,"type":"VEC3","min":[-0.6,-0.01797439687010466,-0.3381630095706302],"max":[0.6,0.8300000000000001,0.3381630095706302]},{"bufferView":1,"componentType":5126,"count":144,"type":"VEC3"},{"bufferView":2,"componentType":5123,"count":216,"type":"SCALAR"}],"materials":[{"pbrMetallicRoughness":{"baseColorFactor":[0.55,0.37,0.21,1.0],"metallicFactor":0.0,"roughnessFactor":0.9},"name":"mat0"},{"pbrMetallicRoughness":{"baseColorFactor":[0.42,0.28,0.16,1.0],"metallicFactor":0.0,"roughnessFactor":0.9},"name":"mat1"}],"meshes":[{"name":"Sawhorse","primitives":[{"attributes":{"POSITION":0,"NORMAL":1},"indices":2,"material":0},{"attributes":{"POSITION":0,"NORMAL":1},"indices":2,"material":1},{"attributes":{"POSITION":0,"NORMAL":1},"indices":2,"material":1},{"attributes":{"POSITION":0,"NORMAL":1},"indices":2,"material":1},{"attributes":{"POSITION":0,"NORMAL":1},"indices":2,"material":1},{"attributes":{"POSITION":0,"NORMAL":1},"indices":2,"material":1}]}],"nodes":[{"name":"Sawhorse","mesh":0}],"scenes":[{"name":"scene","nodes":[0]}],"scene":0}