{"asset":{"version":"2.0","generator":"Town Forge procedural prop builder (CC0)"},"buffers":[{"uri":"ClothBolt.bin","byteLength":2592}],"bufferViews":[{"buffer":0,"byteOffset":0,"byteLength":1152,"target":34962},{"buffer":0,"byteOffset":1152,"byteLength":1152,"target":34962},{"buffer":0,"byteOffset":2304,"byteLength":288,"target":34963}],"accessors":[{"bufferView":0,"componentType":5126,"count":96,"type":"VEC3","min":[-0.47834273692278306,-0.02335694087320049,-0.15],"max":[0.47834273692278306,0.6233569408732004,0.15]},{"bufferView":1,"componentType":5126,"count":96,"type":"VEC3"},{"bufferView":2,"componentType":5123,"count":144,"type":"SCALAR"}],"materials":[{"pbrMetallicRoughness":{"baseColorFactor":[0.7,0.15,0.18,1.0],"metallicFactor":0.0,"roughnessFactor":0.9},"name":"mat0"},{"pbrMetallicRoughness":{"baseColorFactor":[0.15,0.2,0.45,1.0],"metallicFactor":0.0,"roughnessFactor":0.9},"name":"mat1"},{"pbrMetallicRoughness":{"baseColorFactor":[0.15,0.4,0.2,1.0],"metallicFactor":0.0,"roughnessFactor":0.9},"name":"mat2"},{"pbrMetallicRoughness":{"baseColorFactor":[0.88,0.82,0.66,1.0],"metallicFactor":0.0,"roughnessFactor":0.9},"name":"mat3"}],"meshes":[{"name":"ClothBolt","primitives":[{"attributes":{"POSITION":0,"NORMAL":1},"indices":2,"material":0},{"attributes":{"POSITION":0,"NORMAL":1},"indices":2,"material":1},{"attributes":{"POSITION":0,"NORMAL":1},"indices":2,"material":2},{"attributes":{"POSITION":0,"NORMAL":1},"indices":2,"material":3}]}],"nodes":[{"name":"ClothBolt","mesh":0}],"scenes":[{"name":"scene","nodes":[0]}],"scene":0}