{"asset":{"version":"2.0","generator":"Town Forge procedural prop builder (CC0)"},"buffers":[{"uri":"Mannequin.bin","byteLength":11208}],"bufferViews":[{"buffer":0,"byteOffset":0,"byteLength":5088,"target":34962},{"buffer":0,"byteOffset":5088,"byteLength":5088,"target":34962},{"buffer":0,"byteOffset":10176,"byteLength":1032,"target":34963}],"accessors":[{"bufferView":0,"componentType":5126,"count":424,"type":"VEC3","min":[-0.22,0.0,-0.2092324335849338],"max":[0.22,1.45,0.2092324335849338]},{"bufferView":1,"componentType":5126,"count":424,"type":"VEC3"},{"bufferView":2,"componentType":5123,"count":516,"type":"SCALAR"}],"materials":[{"pbrMetallicRoughness":{"baseColorFactor":[0.42,0.28,0.16,1.0],"metallicFactor":0.0,"roughnessFactor":0.9},"name":"mat0"},{"pbrMetallicRoughness":{"baseColorFactor":[0.55,0.37,0.21,1.0],"metallicFactor":0.0,"roughnessFactor":0.9},"name":"mat1"},{"pbrMetallicRoughness":{"baseColorFactor":[0.2,0.18,0.22,1.0],"metallicFactor":0.0,"roughnessFactor":0.9},"name":"mat2"}],"meshes":[{"name":"Mannequin","primitives":[{"attributes":{"POSITION":0,"NORMAL":1},"indices":2,"material":0},{"attributes":{"POSITION":0,"NORMAL":1},"indices":2,"material":1},{"attributes":{"POSITION":0,"NORMAL":1},"indices":2,"material":2},{"attributes":{"POSITION":0,"NORMAL":1},"indices":2,"material":0},{"attributes":{"POSITION":0,"NORMAL":1},"indices":2,"material":2}]}],"nodes":[{"name":"Mannequin","mesh":0}],"scenes":[{"name":"scene","nodes":[0]}],"scene":0}