{"asset":{"version":"2.0","generator":"Town Forge procedural prop builder (CC0)"},"buffers":[{"uri":"StallDivider.bin","byteLength":3240}],"bufferViews":[{"buffer":0,"byteOffset":0,"byteLength":1440,"target":34962},{"buffer":0,"byteOffset":1440,"byteLength":1440,"target":34962},{"buffer":0,"byteOffset":2880,"byteLength":360,"target":34963}],"accessors":[{"bufferView":0,"componentType":5126,"count":120,"type":"VEC3","min":[-1.1500000000000001,0.0,-0.05],"max":[1.1500000000000001,1.3,0.05]},{"bufferView":1,"componentType":5126,"count":120,"type":"VEC3"},{"bufferView":2,"componentType":5123,"count":180,"type":"SCALAR"}],"materials":[{"pbrMetallicRoughness":{"baseColorFactor":[0.55,0.37,0.21,1.0],"metallicFactor":0.0,"roughnessFactor":0.9},"name":"mat0"},{"pbrMetallicRoughness":{"baseColorFactor":[0.42,0.28,0.16,1.0],"metallicFactor":0.0,"roughnessFactor":0.9},"name":"mat1"}],"meshes":[{"name":"StallDivider","primitives":[{"attributes":{"POSITION":0,"NORMAL":1},"indices":2,"material":0},{"attributes":{"POSITION":0,"NORMAL":1},"indices":2,"material":0},{"attributes":{"POSITION":0,"NORMAL":1},"indices":2,"material":1},{"attributes":{"POSITION":0,"NORMAL":1},"indices":2,"material":1},{"attributes":{"POSITION":0,"NORMAL":1},"indices":2,"material":1}]}],"nodes":[{"name":"StallDivider","mesh":0}],"scenes":[{"name":"scene","nodes":[0]}],"scene":0}