{"asset":{"version":"2.0","generator":"Town Forge procedural prop builder (CC0)"},"buffers":[{"uri":"WaterTrough.bin","byteLength":2592}],"bufferViews":[{"buffer":0,"byteOffset":0,"byteLength":1152,"target":34962},{"buffer":0,"byteOffset":1152,"byteLength":1152,"target":34962},{"buffer":0,"byteOffset":2304,"byteLength":288,"target":34963}],"accessors":[{"bufferView":0,"componentType":5126,"count":96,"type":"VEC3","min":[-0.7,0.0,-0.28],"max":[0.7,0.45,0.28]},{"bufferView":1,"componentType":5126,"count":96,"type":"VEC3"},{"bufferView":2,"componentType":5123,"count":144,"type":"SCALAR"}],"materials":[{"pbrMetallicRoughness":{"baseColorFactor":[0.55,0.37,0.21,1.0],"metallicFactor":0.0,"roughnessFactor":0.9},"name":"mat0"},{"pbrMetallicRoughness":{"baseColorFactor":[0.2,0.45,0.62,1.0],"metallicFactor":0.0,"roughnessFactor":0.9},"name":"mat1"},{"pbrMetallicRoughness":{"baseColorFactor":[0.42,0.28,0.16,1.0],"metallicFactor":0.0,"roughnessFactor":0.9},"name":"mat2"}],"meshes":[{"name":"WaterTrough","primitives":[{"attributes":{"POSITION":0,"NORMAL":1},"indices":2,"material":0},{"attributes":{"POSITION":0,"NORMAL":1},"indices":2,"material":1},{"attributes":{"POSITION":0,"NORMAL":1},"indices":2,"material":2},{"attributes":{"POSITION":0,"NORMAL":1},"indices":2,"material":2}]}],"nodes":[{"name":"WaterTrough","mesh":0}],"scenes":[{"name":"scene","nodes":[0]}],"scene":0}