{
  "asset": {
    "version": "2.0",
    "generator": "Town Forge procedural prop builder (CC0)"
  },
  "buffers": [
    {
      "uri": "Bellows.bin",
      "byteLength": 4536
    }
  ],
  "bufferViews": [
    {
      "buffer": 0,
      "byteOffset": 0,
      "byteLength": 2016,
      "target": 34962
    },
    {
      "buffer": 0,
      "byteOffset": 2016,
      "byteLength": 2016,
      "target": 34962
    },
    {
      "buffer": 0,
      "byteOffset": 4032,
      "byteLength": 504,
      "target": 34963
    }
  ],
  "accessors": [
    {
      "bufferView": 0,
      "componentType": 5126,
      "count": 168,
      "type": "VEC3",
      "min": [
        -0.275,
        0.039999999999999994,
        -0.8328938667403802
      ],
      "max": [
        0.275,
        0.3680097783071386,
        0.8400000000000001
      ]
    },
    {
      "bufferView": 1,
      "componentType": 5126,
      "count": 168,
      "type": "VEC3"
    },
    {
      "bufferView": 2,
      "componentType": 5123,
      "count": 252,
      "type": "SCALAR"
    }
  ],
  "materials": [
    {
      "pbrMetallicRoughness": {
        "baseColorFactor": [
          0.48,
          0.32,
          0.17,
          1.0
        ],
        "metallicFactor": 0.0,
        "roughnessFactor": 0.9
      },
      "name": "mat0"
    },
    {
      "pbrMetallicRoughness": {
        "baseColorFactor": [
          0.32,
          0.2,
          0.11,
          1.0
        ],
        "metallicFactor": 0.0,
        "roughnessFactor": 0.9
      },
      "name": "mat1"
    },
    {
      "pbrMetallicRoughness": {
        "baseColorFactor": [
          0.36,
          0.23,
          0.12,
          1.0
        ],
        "metallicFactor": 0.0,
        "roughnessFactor": 0.9
      },
      "name": "mat2"
    },
    {
      "pbrMetallicRoughness": {
        "baseColorFactor": [
          0.35,
          0.36,
          0.38,
          1.0
        ],
        "metallicFactor": 0.0,
        "roughnessFactor": 0.45
      },
      "name": "mat3"
    }
  ],
  "meshes": [
    {
      "name": "Bellows",
      "primitives": [
        {
          "attributes": {
            "POSITION": 0,
            "NORMAL": 1
          },
          "indices": 2,
          "material": 0
        },
        {
          "attributes": {
            "POSITION": 0,
            "NORMAL": 1
          },
          "indices": 2,
          "material": 1
        },
        {
          "attributes": {
            "POSITION": 0,
            "NORMAL": 1
          },
          "indices": 2,
          "material": 2
        },
        {
          "attributes": {
            "POSITION": 0,
            "NORMAL": 1
          },
          "indices": 2,
          "material": 3
        },
        {
          "attributes": {
            "POSITION": 0,
            "NORMAL": 1
          },
          "indices": 2,
          "material": 0
        },
        {
          "attributes": {
            "POSITION": 0,
            "NORMAL": 1
          },
          "indices": 2,
          "material": 0
        },
        {
          "attributes": {
            "POSITION": 0,
            "NORMAL": 1
          },
          "indices": 2,
          "material": 2
        }
      ]
    }
  ],
  "nodes": [
    {
      "name": "Bellows",
      "mesh": 0
    }
  ],
  "scenes": [
    {
      "name": "scene",
      "nodes": [
        0
      ]
    }
  ],
  "scene": 0
}