{"asset":{"version":"2.0","generator":"Town Forge procedural prop builder (CC0)"},"buffers":[{"uri":"Forge.bin","byteLength":11664}],"bufferViews":[{"buffer":0,"byteOffset":0,"byteLength":5184,"target":34962},{"buffer":0,"byteOffset":5184,"byteLength":5184,"target":34962},{"buffer":0,"byteOffset":10368,"byteLength":1296,"target":34963}],"accessors":[{"bufferView":0,"componentType":5126,"count":432,"type":"VEC3","min":[-0.85,0.0,-0.65],"max":[0.85,3.12,0.65]},{"bufferView":1,"componentType":5126,"count":432,"type":"VEC3"},{"bufferView":2,"componentType":5123,"count":648,"type":"SCALAR"}],"materials":[{"pbrMetallicRoughness":{"baseColorFactor":[0.38,0.36,0.34,1.0],"metallicFactor":0.0,"roughnessFactor":0.9},"name":"mat0"},{"pbrMetallicRoughness":{"baseColorFactor":[0.47,0.45,0.42,1.0],"metallicFactor":0.0,"roughnessFactor":0.9},"name":"mat1"},{"pbrMetallicRoughness":{"baseColorFactor":[0.16,0.13,0.11,1.0],"metallicFactor":0.0,"roughnessFactor":0.9},"name":"mat2"},{"pbrMetallicRoughness":{"baseColorFactor":[0.1,0.07,0.06,1.0],"metallicFactor":0.0,"roughnessFactor":0.9},"name":"mat3"},{"pbrMetallicRoughness":{"baseColorFactor":[0.5,0.15,0.03,1.0],"metallicFactor":0.0,"roughnessFactor":0.9},"name":"mat4","emissiveFactor":[1.0,0.4,0.05]}],"meshes":[{"name":"Forge","primitives":[{"attributes":{"POSITION":0,"NORMAL":1},"indices":2,"material":0},{"attributes":{"POSITION":0,"NORMAL":1},"indices":2,"material":1},{"attributes":{"POSITION":0,"NORMAL":1},"indices":2,"material":1},{"attributes":{"POSITION":0,"NORMAL":1},"indices":2,"material":2},{"attributes":{"POSITION":0,"NORMAL":1},"indices":2,"material":0},{"attributes":{"POSITION":0,"NORMAL":1},"indices":2,"material":1},{"attributes":{"POSITION":0,"NORMAL":1},"indices":2,"material":0},{"attributes":{"POSITION":0,"NORMAL":1},"indices":2,"material":2},{"attributes":{"POSITION":0,"NORMAL":1},"indices":2,"material":3},{"attributes":{"POSITION":0,"NORMAL":1},"indices":2,"material":4},{"attributes":{"POSITION":0,"NORMAL":1},"indices":2,"material":4},{"attributes":{"POSITION":0,"NORMAL":1},"indices":2,"material":4},{"attributes":{"POSITION":0,"NORMAL":1},"indices":2,"material":4},{"attributes":{"POSITION":0,"NORMAL":1},"indices":2,"material":4},{"attributes":{"POSITION":0,"NORMAL":1},"indices":2,"material":4},{"attributes":{"POSITION":0,"NORMAL":1},"indices":2,"material":4},{"attributes":{"POSITION":0,"NORMAL":1},"indices":2,"material":1},{"attributes":{"POSITION":0,"NORMAL":1},"indices":2,"material":1}]}],"nodes":[{"name":"Forge","mesh":0}],"scenes":[{"name":"scene","nodes":[0]}],"scene":0}