{"asset":{"version":"2.0","generator":"Town Forge procedural prop builder (CC0)"},"buffers":[{"uri":"HerbBundle.bin","byteLength":9888}],"bufferViews":[{"buffer":0,"byteOffset":0,"byteLength":4416,"target":34962},{"buffer":0,"byteOffset":4416,"byteLength":4416,"target":34962},{"buffer":0,"byteOffset":8832,"byteLength":1056,"target":34963}],"accessors":[{"bufferView":0,"componentType":5126,"count":368,"type":"VEC3","min":[-1.0,0.9400000000000001,-0.08],"max":[0.3933088504908915,1.5250000000000001,0.08]},{"bufferView":1,"componentType":5126,"count":368,"type":"VEC3"},{"bufferView":2,"componentType":5123,"count":528,"type":"SCALAR"}],"materials":[{"pbrMetallicRoughness":{"baseColorFactor":[0.55,0.37,0.21,1.0],"metallicFactor":0.0,"roughnessFactor":0.9},"name":"mat0"},{"pbrMetallicRoughness":{"baseColorFactor":[0.5,0.4,0.24,1.0],"metallicFactor":0.0,"roughnessFactor":0.9},"name":"mat1"},{"pbrMetallicRoughness":{"baseColorFactor":[0.3,0.5,0.25,1.0],"metallicFactor":0.0,"roughnessFactor":0.9},"name":"mat2"},{"pbrMetallicRoughness":{"baseColorFactor":[0.35,0.55,0.28,1.0],"metallicFactor":0.0,"roughnessFactor":0.9},"name":"mat3"}],"meshes":[{"name":"HerbBundle","primitives":[{"attributes":{"POSITION":0,"NORMAL":1},"indices":2,"material":0},{"attributes":{"POSITION":0,"NORMAL":1},"indices":2,"material":1},{"attributes":{"POSITION":0,"NORMAL":1},"indices":2,"material":2},{"attributes":{"POSITION":0,"NORMAL":1},"indices":2,"material":1},{"attributes":{"POSITION":0,"NORMAL":1},"indices":2,"material":3},{"attributes":{"POSITION":0,"NORMAL":1},"indices":2,"material":1},{"attributes":{"POSITION":0,"NORMAL":1},"indices":2,"material":2},{"attributes":{"POSITION":0,"NORMAL":1},"indices":2,"material":1},{"attributes":{"POSITION":0,"NORMAL":1},"indices":2,"material":3},{"attributes":{"POSITION":0,"NORMAL":1},"indices":2,"material":1},{"attributes":{"POSITION":0,"NORMAL":1},"indices":2,"material":2},{"attributes":{"POSITION":0,"NORMAL":1},"indices":2,"material":1},{"attributes":{"POSITION":0,"NORMAL":1},"indices":2,"material":3}]}],"nodes":[{"name":"HerbBundle","mesh":0}],"scenes":[{"name":"scene","nodes":[0]}],"scene":0}