{"asset":{"version":"2.0","generator":"Town Forge procedural prop builder (CC0)"},"buffers":[{"uri":"MortarPestle.bin","byteLength":8448}],"bufferViews":[{"buffer":0,"byteOffset":0,"byteLength":3840,"target":34962},{"buffer":0,"byteOffset":3840,"byteLength":3840,"target":34962},{"buffer":0,"byteOffset":7680,"byteLength":768,"target":34963}],"accessors":[{"bufferView":0,"componentType":5126,"count":320,"type":"VEC3","min":[-0.19,0.0,-0.19],"max":[0.40331887686632767,0.30484891780430096,0.19]},{"bufferView":1,"componentType":5126,"count":320,"type":"VEC3"},{"bufferView":2,"componentType":5123,"count":384,"type":"SCALAR"}],"materials":[{"pbrMetallicRoughness":{"baseColorFactor":[0.55,0.55,0.58,1.0],"metallicFactor":0.0,"roughnessFactor":0.9},"name":"mat0"},{"pbrMetallicRoughness":{"baseColorFactor":[0.3,0.5,0.25,1.0],"metallicFactor":0.0,"roughnessFactor":0.9},"name":"mat1"},{"pbrMetallicRoughness":{"baseColorFactor":[0.55,0.37,0.21,1.0],"metallicFactor":0.0,"roughnessFactor":0.9},"name":"mat2"}],"meshes":[{"name":"MortarPestle","primitives":[{"attributes":{"POSITION":0,"NORMAL":1},"indices":2,"material":0},{"attributes":{"POSITION":0,"NORMAL":1},"indices":2,"material":1},{"attributes":{"POSITION":0,"NORMAL":1},"indices":2,"material":2}]}],"nodes":[{"name":"MortarPestle","mesh":0}],"scenes":[{"name":"scene","nodes":[0]}],"scene":0}