{"asset":{"generator":"Khronos glTF Blender I/O v3.4.50","version":"2.0"},"scene":0,"scenes":[{"name":"Scene","nodes":[0]}],"nodes":[{"mesh":0,"name":"resource_lumber"}],"materials":[{"name":"hexagons_medieval","pbrMetallicRoughness":{"metallicFactor":0,"roughnessFactor":0.5}}],"meshes":[{"name":"Cube.569","primitives":[{"attributes":{"POSITION":0,"TEXCOORD_0":1,"NORMAL":2},"indices":3,"material":0}]}],"accessors":[{"bufferView":0,"componentType":5126,"count":330,"max":[0.3414117693901062,0.20999956130981445,0.1668621450662613],"min":[-0.3445308208465576,-1.4901161193847656e-06,-0.1636335700750351],"type":"VEC3"},{"bufferView":1,"componentType":5126,"count":330,"type":"VEC2"},{"bufferView":2,"componentType":5126,"count":330,"type":"VEC3"},{"bufferView":3,"componentType":5123,"count":660,"type":"SCALAR"}],"bufferViews":[{"buffer":0,"byteLength":3960,"byteOffset":0,"target":34962},{"buffer":0,"byteLength":2640,"byteOffset":3960,"target":34962},{"buffer":0,"byteLength":3960,"byteOffset":6600,"target":34962},{"buffer":0,"byteLength":1320,"byteOffset":10560,"target":34963}],"buffers":[{"byteLength":11880,"uri":"resource_lumber.bin"}]}