{"asset":{"generator":"Khronos glTF Blender I/O v3.4.50","version":"2.0"},"scene":0,"scenes":[{"name":"Scene","nodes":[0]}],"nodes":[{"mesh":0,"name":"rock_single_E"}],"materials":[{"name":"hexagons_medieval","pbrMetallicRoughness":{"metallicFactor":0,"roughnessFactor":0.5}}],"meshes":[{"name":"rock_single_E","primitives":[{"attributes":{"POSITION":0,"TEXCOORD_0":1,"NORMAL":2},"indices":3,"material":0}]}],"accessors":[{"bufferView":0,"componentType":5126,"count":121,"max":[0.23278957605361938,0.19468727707862854,0.1627117246389389],"min":[-0.2553517520427704,-9.38796074478887e-05,-0.18480737507343292],"type":"VEC3"},{"bufferView":1,"componentType":5126,"count":121,"type":"VEC2"},{"bufferView":2,"componentType":5126,"count":121,"type":"VEC3"},{"bufferView":3,"componentType":5123,"count":213,"type":"SCALAR"}],"bufferViews":[{"buffer":0,"byteLength":1452,"byteOffset":0,"target":34962},{"buffer":0,"byteLength":968,"byteOffset":1452,"target":34962},{"buffer":0,"byteLength":1452,"byteOffset":2420,"target":34962},{"buffer":0,"byteLength":426,"byteOffset":3872,"target":34963}],"buffers":[{"byteLength":4300,"uri":"rock_single_E.bin"}]}